<?xml version="1.0" standalone="no"?>
<!DOCTYPE svg PUBLIC "-//W3C//DTD SVG 1.1//EN" "http://www.w3.org/Graphics/SVG/1.1/DTD/svg11.dtd">
<svg width="100%" height="100%" viewBox="0 0 350 100" version="1.1" xmlns="http://www.w3.org/2000/svg" xmlns:xlink="http://www.w3.org/1999/xlink" xml:space="preserve" style="fill-rule:evenodd;clip-rule:evenodd;stroke-linecap:round;stroke-linejoin:round;stroke-miterlimit:1.41421;">
    <g>
        <g transform="matrix(0.00928959,-0.195031,-0.224595,-0.0106978,98.7733,95.8956)">
            <path d="M168.917,289.142L328.585,295.769L266.287,356.158L88.25,347.826L168.917,289.142Z" style="fill:rgb(114,114,114);stroke-width:6.33px;stroke:rgb(114,114,114);"/>
        </g>
        <g transform="matrix(0.00923802,-0.193948,-0.224595,-0.0106978,105.133,95.8001)">
            <path d="M176.582,289.463L328.585,295.769L266.287,356.158L88.25,347.826L176.582,289.463Z" style="fill:rgb(136,136,136);stroke-width:6.35px;stroke:rgb(136,136,136);"/>
        </g>
        <g transform="matrix(0.00930563,-0.195368,-0.224595,-0.0106978,111.463,95.9446)">
            <path d="M175.202,297.383L328.591,295.769L266.287,356.158L88.25,347.826L175.202,297.383Z" style="fill:rgb(159,159,159);stroke-width:6.33px;stroke:rgb(158,158,158);"/>
        </g>
        <g transform="matrix(0.00938782,-0.197093,-0.224595,-0.0106978,117.779,95.9797)">
            <path d="M178.675,292.888L323.366,298.936L264.869,355.208L88.25,347.826L178.675,292.888Z" style="fill:rgb(193,193,193);stroke-width:6.3px;stroke:rgb(193,193,193);"/>
        </g>
        <g transform="matrix(0.0097801,-0.205329,-0.224595,-0.0106978,124.102,96.5864)">
            <path d="M170.486,296.597L312.672,302.788L250.362,354.877L86.252,347.731L170.486,296.597Z" style="fill:rgb(213,213,213);stroke-width:6.19px;stroke:rgb(211,211,211);"/>
        </g>
        <g transform="matrix(0.00985774,-0.206959,-0.224595,-0.0106978,130.966,95.541)">
            <path d="M278.288,323.139L240.762,355.495L81.21,348.492L124.91,321.627L278.288,323.139Z" style="fill:rgb(230,230,230);stroke-width:6.17px;stroke:rgb(230,230,230);"/>
        </g>
        <g transform="matrix(1.45521,0,0,1.49963,-164.278,-392.789)">
            <path d="M153.773,311.607L153.773,288.687C153.773,286.767 154.479,285.101 155.893,283.687C157.306,282.274 158.973,281.567 160.893,281.567L161.293,281.567C161.479,281.567 161.646,281.634 161.793,281.767C161.939,281.901 162.013,282.074 162.013,282.287C162.013,282.741 161.773,282.967 161.293,282.967L160.893,282.967C159.319,282.967 157.979,283.541 156.873,284.687C155.766,285.834 155.199,287.167 155.173,288.687L155.173,293.407L161.293,293.407C161.479,293.407 161.646,293.474 161.793,293.607C161.939,293.741 162.013,293.901 162.013,294.087C162.013,294.274 161.939,294.441 161.793,294.587C161.646,294.734 161.479,294.807 161.293,294.807L155.173,294.807L155.173,311.607C155.173,311.794 155.099,311.954 154.953,312.087C154.806,312.221 154.626,312.287 154.413,312.287C153.986,312.287 153.773,312.061 153.773,311.607Z" style="fill:rgb(208,208,208);fill-rule:nonzero;"/>
            <path d="M165.293,311.567L165.293,294.087C165.293,293.634 165.519,293.407 165.973,293.407C166.453,293.407 166.693,293.634 166.693,294.087L166.693,296.207C167.893,294.181 169.746,293.167 172.253,293.167L173.733,293.167C173.919,293.167 174.079,293.241 174.213,293.387C174.346,293.534 174.413,293.701 174.413,293.887C174.413,294.074 174.346,294.234 174.213,294.367C174.079,294.501 173.919,294.567 173.733,294.567L172.253,294.567C170.759,294.567 169.459,295.101 168.353,296.167C167.246,297.234 166.693,298.634 166.693,300.367L166.693,311.567C166.693,311.754 166.619,311.921 166.473,312.067C166.326,312.214 166.159,312.287 165.973,312.287C165.786,312.287 165.626,312.214 165.493,312.067C165.359,311.921 165.293,311.754 165.293,311.567Z" style="fill:rgb(208,208,208);fill-rule:nonzero;"/>
            <path d="M175.133,307.247C175.133,305.247 175.926,303.867 177.513,303.107C179.099,302.347 181.413,301.967 184.453,301.967L186.693,301.967L186.693,300.847C186.693,299.141 186.253,297.667 185.373,296.427C184.493,295.187 183.173,294.567 181.413,294.567C180.693,294.567 180.019,294.654 179.393,294.827C178.766,295.001 178.279,295.181 177.933,295.367C177.586,295.554 177.359,295.647 177.253,295.647C177.039,295.647 176.866,295.554 176.733,295.367C176.599,295.181 176.533,295.007 176.533,294.847C176.533,294.447 177.059,294.067 178.113,293.707C179.166,293.347 180.293,293.167 181.493,293.167C183.786,293.167 185.459,293.894 186.513,295.347C187.566,296.801 188.093,298.634 188.093,300.847L188.093,311.567C188.093,312.047 187.866,312.287 187.413,312.287C187.199,312.287 187.026,312.221 186.893,312.087C186.759,311.954 186.693,311.781 186.693,311.567L186.693,309.487C184.933,311.514 182.933,312.527 180.693,312.527C179.039,312.527 177.699,312.081 176.673,311.187C175.646,310.294 175.133,308.981 175.133,307.247ZM176.533,307.247C176.533,308.527 176.913,309.494 177.673,310.147C178.433,310.801 179.426,311.127 180.653,311.127C182.093,311.127 183.459,310.621 184.753,309.607C186.046,308.594 186.693,307.634 186.693,306.727L186.693,303.367L184.493,303.367C183.293,303.367 182.286,303.407 181.473,303.487C180.659,303.567 179.839,303.734 179.013,303.987C178.186,304.241 177.566,304.641 177.153,305.187C176.739,305.734 176.533,306.421 176.533,307.247Z" style="fill:rgb(208,208,208);fill-rule:nonzero;"/>
            <path d="M193.373,311.567L193.373,294.087C193.373,293.634 193.599,293.407 194.053,293.407C194.533,293.407 194.773,293.634 194.773,294.087L194.773,296.207C195.919,294.181 197.706,293.167 200.133,293.167C201.493,293.167 202.699,293.534 203.753,294.267C204.806,295.001 205.599,295.967 206.133,297.167C206.799,295.861 207.679,294.867 208.773,294.187C209.866,293.507 211.013,293.167 212.213,293.167C213.999,293.167 215.539,293.821 216.833,295.127C218.126,296.434 218.773,298.181 218.773,300.367L218.773,311.567C218.773,311.754 218.699,311.921 218.553,312.067C218.406,312.214 218.239,312.287 218.053,312.287C217.866,312.287 217.706,312.214 217.573,312.067C217.439,311.921 217.373,311.754 217.373,311.567L217.373,300.367C217.373,298.554 216.846,297.134 215.793,296.107C214.739,295.081 213.533,294.567 212.173,294.567C210.759,294.567 209.506,295.094 208.413,296.147C207.319,297.201 206.773,298.527 206.773,300.127L206.773,311.607C206.773,312.061 206.533,312.287 206.053,312.287C205.599,312.287 205.373,312.061 205.373,311.607L205.373,300.167C205.373,298.594 204.873,297.267 203.873,296.187C202.873,295.107 201.653,294.567 200.213,294.567C198.773,294.567 197.506,295.101 196.413,296.167C195.319,297.234 194.773,298.634 194.773,300.367L194.773,311.567C194.773,311.754 194.699,311.921 194.553,312.067C194.406,312.214 194.239,312.287 194.053,312.287C193.866,312.287 193.706,312.214 193.573,312.067C193.439,311.921 193.373,311.754 193.373,311.567Z" style="fill:rgb(208,208,208);fill-rule:nonzero;"/>
            <path d="M223.373,305.247L223.373,300.247C223.373,298.327 224.073,296.667 225.473,295.267C226.873,293.867 228.546,293.167 230.493,293.167C232.413,293.167 234.073,293.854 235.473,295.227C236.873,296.601 237.573,298.314 237.573,300.367C237.573,301.061 237.493,301.621 237.333,302.047C237.173,302.474 236.906,302.781 236.533,302.967C236.159,303.154 235.819,303.267 235.513,303.307C235.206,303.347 234.786,303.367 234.253,303.367L224.773,303.367L224.773,305.247C224.773,307.034 225.399,308.461 226.653,309.527C227.906,310.594 229.533,311.127 231.533,311.127C232.519,311.127 233.346,310.987 234.013,310.707C234.679,310.427 235.179,310.154 235.513,309.887C235.846,309.621 236.093,309.487 236.253,309.487C236.439,309.487 236.606,309.567 236.753,309.727C236.899,309.887 236.973,310.047 236.973,310.207C236.973,310.474 236.759,310.787 236.333,311.147C235.906,311.507 235.253,311.827 234.373,312.107C233.493,312.387 232.519,312.527 231.453,312.527C229.079,312.527 227.139,311.854 225.633,310.507C224.126,309.161 223.373,307.407 223.373,305.247ZM224.773,301.967L233.773,301.967C234.759,301.967 235.406,301.874 235.713,301.687C236.019,301.501 236.173,301.101 236.173,300.487C236.173,298.967 235.639,297.601 234.573,296.387C233.506,295.174 232.146,294.567 230.493,294.567C228.893,294.567 227.539,295.134 226.433,296.267C225.326,297.401 224.773,298.727 224.773,300.247L224.773,301.967Z" style="fill:rgb(208,208,208);fill-rule:nonzero;"/>
            <path d="M241.853,311.567L241.853,294.087C241.853,293.634 242.079,293.407 242.533,293.407C243.013,293.407 243.253,293.634 243.253,294.087L243.253,296.207C244.399,294.181 246.186,293.167 248.613,293.167C250.586,293.167 252.279,293.874 253.693,295.287C255.106,296.701 255.813,298.394 255.813,300.367L255.813,311.567C255.813,312.047 255.573,312.287 255.093,312.287C254.639,312.287 254.413,312.047 254.413,311.567L254.413,300.367C254.413,298.874 253.846,297.534 252.713,296.347C251.579,295.161 250.253,294.567 248.733,294.567C247.293,294.567 246.019,295.101 244.913,296.167C243.806,297.234 243.253,298.634 243.253,300.367L243.253,311.567C243.253,311.754 243.179,311.921 243.033,312.067C242.886,312.214 242.719,312.287 242.533,312.287C242.346,312.287 242.186,312.214 242.053,312.067C241.919,311.921 241.853,311.754 241.853,311.567Z" style="fill:rgb(208,208,208);fill-rule:nonzero;"/>
            <path d="M261.093,311.567L261.093,294.087C261.093,293.901 261.159,293.741 261.293,293.607C261.426,293.474 261.586,293.407 261.773,293.407C262.253,293.407 262.493,293.634 262.493,294.087L262.493,311.567C262.493,311.754 262.419,311.921 262.273,312.067C262.126,312.214 261.959,312.287 261.773,312.287C261.586,312.287 261.426,312.214 261.293,312.067C261.159,311.921 261.093,311.754 261.093,311.567Z" style="fill:rgb(208,208,208);fill-rule:nonzero;"/>
            <path d="M267.933,311.567L267.933,294.087C267.933,293.634 268.159,293.407 268.613,293.407C269.093,293.407 269.333,293.634 269.333,294.087L269.333,296.207C270.479,294.181 272.266,293.167 274.693,293.167C276.053,293.167 277.259,293.534 278.313,294.267C279.366,295.001 280.159,295.967 280.693,297.167C281.359,295.861 282.239,294.867 283.333,294.187C284.426,293.507 285.573,293.167 286.773,293.167C288.559,293.167 290.099,293.821 291.393,295.127C292.686,296.434 293.333,298.181 293.333,300.367L293.333,311.567C293.333,311.754 293.259,311.921 293.113,312.067C292.966,312.214 292.799,312.287 292.613,312.287C292.426,312.287 292.266,312.214 292.133,312.067C291.999,311.921 291.933,311.754 291.933,311.567L291.933,300.367C291.933,298.554 291.406,297.134 290.353,296.107C289.299,295.081 288.093,294.567 286.733,294.567C285.319,294.567 284.066,295.094 282.973,296.147C281.879,297.201 281.333,298.527 281.333,300.127L281.333,311.607C281.333,312.061 281.093,312.287 280.613,312.287C280.159,312.287 279.933,312.061 279.933,311.607L279.933,300.167C279.933,298.594 279.433,297.267 278.433,296.187C277.433,295.107 276.213,294.567 274.773,294.567C273.333,294.567 272.066,295.101 270.973,296.167C269.879,297.234 269.333,298.634 269.333,300.367L269.333,311.567C269.333,311.754 269.259,311.921 269.113,312.067C268.966,312.214 268.799,312.287 268.613,312.287C268.426,312.287 268.266,312.214 268.133,312.067C267.999,311.921 267.933,311.754 267.933,311.567Z" style="fill:rgb(208,208,208);fill-rule:nonzero;"/>
            <path d="M297.293,307.247C297.293,305.247 298.086,303.867 299.673,303.107C301.259,302.347 303.573,301.967 306.613,301.967L308.853,301.967L308.853,300.847C308.853,299.141 308.413,297.667 307.533,296.427C306.653,295.187 305.333,294.567 303.573,294.567C302.853,294.567 302.179,294.654 301.553,294.827C300.926,295.001 300.439,295.181 300.093,295.367C299.746,295.554 299.519,295.647 299.413,295.647C299.199,295.647 299.026,295.554 298.893,295.367C298.759,295.181 298.693,295.007 298.693,294.847C298.693,294.447 299.219,294.067 300.273,293.707C301.326,293.347 302.453,293.167 303.653,293.167C305.946,293.167 307.619,293.894 308.673,295.347C309.726,296.801 310.253,298.634 310.253,300.847L310.253,311.567C310.253,312.047 310.026,312.287 309.573,312.287C309.359,312.287 309.186,312.221 309.053,312.087C308.919,311.954 308.853,311.781 308.853,311.567L308.853,309.487C307.093,311.514 305.093,312.527 302.853,312.527C301.199,312.527 299.859,312.081 298.833,311.187C297.806,310.294 297.293,308.981 297.293,307.247ZM298.693,307.247C298.693,308.527 299.073,309.494 299.833,310.147C300.593,310.801 301.586,311.127 302.813,311.127C304.253,311.127 305.619,310.621 306.913,309.607C308.206,308.594 308.853,307.634 308.853,306.727L308.853,303.367L306.653,303.367C305.453,303.367 304.446,303.407 303.633,303.487C302.819,303.567 301.999,303.734 301.173,303.987C300.346,304.241 299.726,304.641 299.313,305.187C298.899,305.734 298.693,306.421 298.693,307.247Z" style="fill:rgb(208,208,208);fill-rule:nonzero;"/>
            <path d="M315.453,306.727L315.453,284.847C315.453,284.661 315.526,284.501 315.673,284.367C315.819,284.234 315.973,284.167 316.133,284.167C316.319,284.167 316.486,284.234 316.633,284.367C316.779,284.501 316.853,284.661 316.853,284.847L316.853,293.407L322.253,293.407C322.439,293.407 322.599,293.481 322.733,293.627C322.866,293.774 322.933,293.941 322.933,294.127C322.933,294.314 322.866,294.474 322.733,294.607C322.599,294.741 322.439,294.807 322.253,294.807L316.853,294.807L316.853,306.727C316.853,308.247 317.186,309.321 317.853,309.947C318.519,310.574 319.666,310.887 321.293,310.887L322.213,310.887C322.399,310.887 322.559,310.954 322.693,311.087C322.826,311.221 322.893,311.381 322.893,311.567C322.893,311.754 322.826,311.921 322.693,312.067C322.559,312.214 322.399,312.287 322.213,312.287L321.293,312.287C317.399,312.287 315.453,310.434 315.453,306.727Z" style="fill:rgb(208,208,208);fill-rule:nonzero;"/>
            <path d="M325.293,305.247L325.293,300.247C325.293,298.327 325.993,296.667 327.393,295.267C328.793,293.867 330.466,293.167 332.413,293.167C334.333,293.167 335.993,293.854 337.393,295.227C338.793,296.601 339.493,298.314 339.493,300.367C339.493,301.061 339.413,301.621 339.253,302.047C339.093,302.474 338.826,302.781 338.453,302.967C338.079,303.154 337.739,303.267 337.433,303.307C337.126,303.347 336.706,303.367 336.173,303.367L326.693,303.367L326.693,305.247C326.693,307.034 327.319,308.461 328.573,309.527C329.826,310.594 331.453,311.127 333.453,311.127C334.439,311.127 335.266,310.987 335.933,310.707C336.599,310.427 337.099,310.154 337.433,309.887C337.766,309.621 338.013,309.487 338.173,309.487C338.359,309.487 338.526,309.567 338.673,309.727C338.819,309.887 338.893,310.047 338.893,310.207C338.893,310.474 338.679,310.787 338.253,311.147C337.826,311.507 337.173,311.827 336.293,312.107C335.413,312.387 334.439,312.527 333.373,312.527C330.999,312.527 329.059,311.854 327.553,310.507C326.046,309.161 325.293,307.407 325.293,305.247ZM326.693,301.967L335.693,301.967C336.679,301.967 337.326,301.874 337.633,301.687C337.939,301.501 338.093,301.101 338.093,300.487C338.093,298.967 337.559,297.601 336.493,296.387C335.426,295.174 334.066,294.567 332.413,294.567C330.813,294.567 329.459,295.134 328.353,296.267C327.246,297.401 326.693,298.727 326.693,300.247L326.693,301.967Z" style="fill:rgb(208,208,208);fill-rule:nonzero;"/>
        </g>
    </g>
</svg>
